<svg xmlns="http://www.w3.org/2000/svg" width="77.936" height="98.26"><path data-name="Path 2" d="M.002 18.443h28q14.784 0 21.818 7.71 7.017 7.689 7.031 23.951a39.082 39.082 0 01-2.354 14.383 23.3 23.3 0 01-14.78 13.9 42.472 42.472 0 01-11.321 1.219H.002V18.443zm27.74 10.634H12.869v39.874h14.873c5.7 0 9.645-1.418 11.8-4.277s3.216-8.086 3.216-15.66c0-7.55-1.05-12.736-3.216-15.624s-6.1-4.313-11.8-4.313" fill="#f7941e"/><path data-name="Path 3" d="M.002 98.26V85.451H34.47s.257 0 1.092-.047a31.187 31.187 0 003.519-.49 36.478 36.478 0 0010.8-3.875c7.567-4.479 15.058-11.92 15.24-30.625V47.86c-.125-16.422-5.981-24.044-12.4-28.824a35.822 35.822 0 00-17.164-6.159c-.835-.067-1.092-.067-1.092-.067H.002V0h34.519a48.133 48.133 0 0121.61 6.045c10.952 5.89 21.993 19.182 21.8 41.81v2.559c.189 22.621-10.852 35.912-21.8 41.8a48.15 48.15 0 01-21.654 6.046H.002z" fill="#808285"/></svg>