<svg xmlns="http://www.w3.org/2000/svg" viewBox="0 0 500 100"><path fill="#808285" d="M26.681 81.342L0 20.183h14.616L32.993 65.73l18.851-45.547h13.699L39.982 81.342zM72.472 20.183h16.259l25.063 43.928-.624-43.928h13.145v61.159h-14.942L85.071 35.069l.586 46.273H72.472z"/><path fill="#F7941E" d="M142.599 20.183h27.996c9.856 0 17.12 2.571 21.818 7.71 4.678 5.126 7.031 13.119 7.031 23.951 0 5.582-.766 10.365-2.354 14.383-1.56 3.98-3.918 7.25-7.055 9.74-2.421 1.949-4.985 3.326-7.725 4.156-2.747.791-6.529 1.219-11.321 1.219h-28.391V20.183zm27.741 10.634h-14.873v39.874h14.873c5.7 0 9.645-1.418 11.803-4.277 2.166-2.867 3.216-8.086 3.216-15.66 0-7.55-1.05-12.736-3.216-15.624-2.158-2.879-6.102-4.313-11.803-4.313"/><path fill="#808285" d="M234.312 20.183h13.447v61.159h-13.447zM263.294 20.183h31.656c7.401 0 12.806 1.466 16.236 4.439 3.449 2.962 5.148 7.609 5.148 13.947 0 4.682-1.04 8.504-3.149 11.484-2.145 2.969-5.189 4.889-9.19 5.739l15.257 25.551h-14.473l-13.482-24.055h-15.149v24.055h-12.854v-61.16zm28.623 10.876h-15.77v15.402h15.77c4.289 0 7.252-.55 8.909-1.75 1.671-1.154 2.498-3.158 2.498-5.973 0-2.822-.813-4.774-2.435-5.93-1.607-1.159-4.606-1.749-8.972-1.749M355.854 30.817c-4.665 0-8.165 1.172-10.533 3.5-2.39 2.332-3.686 5.888-3.936 10.699l35.584.047v10.638h-35.658c.009 5.336 1.155 9.156 3.376 11.486 2.241 2.334 5.952 3.504 11.167 3.504h21.115v10.65H355.22c-4.776 0-8.563-.428-11.312-1.219-2.73-.83-5.314-2.207-7.737-4.156-3.122-2.49-5.482-5.76-7.049-9.74-1.548-4.018-2.355-8.801-2.355-14.383 0-10.832 2.355-18.825 7.053-23.951 4.672-5.139 11.939-7.71 21.779-7.71h21.37v10.635h-21.115zM418.32 30.617c-5.324 0-9.148 1.696-11.522 5.07-2.324 3.399-3.484 8.966-3.484 16.697 0 6.703 1.107 11.438 3.357 14.182 2.245 2.756 6.135 4.125 11.649 4.125h21.152v10.65h-21.783c-4.785 0-8.575-.428-11.317-1.219-2.725-.83-5.325-2.207-7.731-4.156-3.149-2.49-5.488-5.76-7.06-9.74-1.55-4.018-2.355-8.801-2.355-14.383 0-10.832 2.355-18.825 7.035-23.951 4.686-5.139 11.959-7.71 21.808-7.71h21.404v10.435H418.32zM466.798 30.917h-19.75V20.264h52.911v10.653h-19.841v50.427h-13.32zM142.599 100V87.191h34.468s.257 0 1.092-.047c.81-.061 2.029-.201 3.519-.49 2.976-.57 6.955-1.715 10.804-3.875 7.567-4.479 15.058-11.92 15.24-30.625v-2.559c-.125-16.422-5.981-24.044-12.398-28.824-6.467-4.72-14.286-5.936-17.164-6.159-.835-.067-1.092-.067-1.092-.067h.008H142.6V1.74h34.519c.577.033 10.739 0 21.61 6.045 10.952 5.89 21.993 19.182 21.803 41.81v2.559c.189 22.621-10.852 35.912-21.803 41.799-10.872 6.047-21.034 6.012-21.654 6.047h-34.476z"/></svg>